<?xml version="1.0" encoding="UTF-8"?>
<svg id="Layer_2" data-name="Layer 2" xmlns="http://www.w3.org/2000/svg" viewBox="0 0 516.67 527.5">
  <defs>
    <style>
      .cls-1 {
        fill: #b28166;
      }
    </style>
  </defs>
  <g id="Layer_1-2" data-name="Layer 1">
    <g>
      <path class="cls-1" d="M476.41,405.44l-9.54,14.07c-13.89,20.47-30.86,37.29-50.37,52.62-28.43,22.35-60.34,38.15-95.4,47.38-67.7,17.81-141.41,5.36-199.99-32.52C47.87,439.64,4.6,363.17.31,275.76-3.9,189.95,35.33,106.09,102.88,53.65,173.85-1.45,268.74-15.56,351.81,18.1c11.97,4.85,22.83,9.55,33.8,16.35,14.99,9.28,29.11,18.87,42.16,30.79,54.36,49.65,85.25,114.51,88.83,188.11l.06,21.94c-3.53,48.99-14.11,87.52-40.26,130.16ZM440.47,439.11c12.19-12.92,21.91-26.79,31.38-41.74l15.96-31.08c9.24-21.14,15.23-43.44,18.47-66.45l2.53-39c-.84-66.56-27.36-129.31-73.51-177.12-15.68-16.24-33.31-29.63-52.58-41.41-12.82-7.84-25.37-13.43-39.51-18.77-55.42-20.92-118.41-20.47-173.77,1.36C107.25,49.42,56.56,99.08,29.74,160.18l-6.94,17.48C-.82,244.25,3.79,318.07,35.87,381.02c14.15,27.77,33.25,53.06,56.49,73.83,103.34,92.34,253.72,84.26,348.12-15.74Z"/>
      <g>
        <path class="cls-1" d="M236.3,340.92c-16.54-40.1-12.43-79.01,4.83-119.82l-11.58,9.07c-11.61,9.09-24.39,15.49-37.99,22.35l-9.79,34.87-10.87,36.22c-5.24,17.47-12.08,34.03-20.97,49.84-3.62,6.44-8,11.88-12.87,17.27-15.7,17.39-45.2,24.38-59.84,6.06-6.17-7.73-8.98-17.74-8.52-28.16,1.05-24.09,13.1-45.53,29.54-62.75,3.19-3.34,4.83-5.79,4.87-10.49l.32-45.55c.07-9.32,10.06-12.97,12.02-19.4-8.32-2.28-4.05-11.42-5.15-24.66-.34-4.03,2.43-7.09,6.41-7.2,2.43-.07,4.03-1.04,4.07-3.74l.29-20.23c.11-7.88,7.67-11.8,14.28-11.09,7.83.85,10.62,7.6,10.94,15.31l.82,19.93c2.37-.09,5.05-.29,6.56.86,1.26.96,3.08,3.06,3.12,5.41l.23,17.77c.05,3.67-1.66,6.37-5.39,7.93,1.73,4.07,4.99,6.16,7.75,9,4.39,4.53,4.16,10.63,4.9,17.73,5.83-3.14,10.91-6.43,16.87-8.88,3.51-9.01,4.96-18.17,7.51-27.52l11.56-42.34c4.65-17.04,9.07-33.51,14.82-50.19l7.29-21.16c-20.91,1.83-44.31,3.1-57.65,18.88-7.13,8.43-6.36,19.97,1.63,27.44,1.89,1.77,2.19,4.5.63,6.33-3.44,4.02-10.63-2.25-13.79-9.05-4.92-10.6-2.03-22.98,5.67-31.66,14.88-16.75,44.48-19.34,67.42-20.45,7.43-16.49,21.87-34.32,39.75-30.68,6.58,1.34,9.84,7.13,9.44,13.64-.39,6.37-3.1,11.23-8.64,14.68-9.79,6.09-21.16,8.62-32.83,9.73-3.89,5.04-5.28,10.55-6.96,16.64l-28.23,102.36c-1.43,5.18-3.65,9.21-3.57,15.27,23.8-12.03,44.93-26.88,63.16-45.47l5.52-5.63c14.44-14.72,32.38-24.28,52.75-28.26,9.43-1.84,18.37-3.25,27.85-1.61,24,4.16,45.87,15.2,51.08,39.86,2.27,10.73,2.14,23.57-5.82,23.33-2.93-.09-5.8-3.1-5.1-6.66,5.1-26-16.3-44.4-41.89-46.82s-52.7,7.61-70.47,27.51c-9.11,10.21-16.73,20.68-21.65,33.44-13.66,35.4-17.63,66.5-4.51,102.6,8.74,24.04,27.4,42.47,52.91,47.27,24.47,4.61,51.05-5.33,70.16-21.33,27.92-23.38,43.76-55.89,52.3-90.89l17.82-73.03,7.68-30c.79-3.09,5.23-3.92,7.19-3.37,2.87.8,4.26,3.77,3.42,6.94l-5.19,19.76-25.87,107.01-15.58,63.5-6.41,26.49c-.62,2.56-3,3.5-4.87,3.74-1.73.22-6.04-.84-5.88-3.43.83-13.37,4.79-25.97,8.09-38.98,1.29-5.09,3.51-9.27,3.33-15.31l-8.85,11.89-8.46,10.37-12.01,11.91c-34.74,30.02-87.27,37.1-121.13,2.76-7.68-7.8-14.25-16.95-18.47-27.17ZM254.3,93.4c10.84-3.42,15.21-11.65,11.78-15.93-3.69-4.61-18.77,1.67-26.17,14.01-1,1.67-3.22,2.78-2.69,5.41,5.98.56,11.16-1.61,17.08-3.49ZM140.95,198.37l-.12-20.4c-.02-3.71-1.8-7.96-5.91-8.9-3.67-.84-8.49,2.86-8.53,6.69l-.23,22.87,14.78-.27ZM115.79,203.86l-.03,20.4,35.51.05.03-20.4-35.51-.05ZM108.48,295.4l16.49-13.68-.69-52.62-6.75,9.83c-5.44,3.97-8.99,8.93-9,15.93l-.06,40.55ZM136.48,297.38l.23-20-.13-47.5c-2.67-.41-4.02-.43-6.52-.08l.54,69.72c.04,5.16,2.52,9.85,3.06,14.66,1.15-5.87,2.76-10.89,2.82-16.81ZM144.91,229.52c-1.68-.05-3.15.2-3.46.67-.2.3.6,1.08.6,1.76l.26,37.34,15.17-8.64c4.06-18.27-9.29-18.2-12.57-31.13ZM146.8,330.23c.87,1.81-.14,5.4-2.51,5.39l-31.97-.07c-4.83-.01-8.6-4.15-9.01-8.75s.78-9.02-.77-13.75c-17.39,20.53-34.01,50.28-21.46,74.03,7.7,14.56,28.46,14.11,41.78,2.24,9.38-8.36,16.3-18.52,21.96-30.04,9.66-19.66,16.66-40.09,22.62-61.3l10.84-38.62-14.26,7.62c.19,11.59-.49,22.2-4.85,33.28-1.49-10.43-.93-19.72-1.35-30.31-4.93,2.96-10.92,4.52-13.63,8.81-2.95,4.66-.56,13.82-3.26,27.41l-2.76,13.96c-1,2-7.01,1.99-8.6.41-2.85-2.83-1.37-8.18-2.35-11.52-1.75-5.97-2.78-10.57-2.49-16.86-6.19,4.65-11.56,9.16-15.49,14.83l-.48,17.77c-.09,3.23,2.53,5.37,5.44,5.38l32.61.08Z"/>
        <path class="cls-1" d="M358.14,338.46c-31.93,13.13-85.84,5.57-89.46-18.78-.67-4.51-.56-10.92,1.78-14.78,4.26-7.05,12.14-10.89,19.6-12.79l11.79-3c-23.02-10.74-36.23-36.16-29.14-60.7,4.83-16.73,15.97-28.97,31.96-35.19,19.93-7.76,41.98-1.69,56.1,13.66,14.6,15.87,17.47,38.8,7.87,58.46-5.07,10.39-13.38,17.47-23.82,23.86l19.07,6.18c4.45,1.44,9.48,5.45,11.67,10.1,2.41,5.12,2.45,13.51.12,18.77-3.23,7.3-10.68,11.38-17.53,14.19ZM368.76,241.7c0-25.48-20.66-46.14-46.14-46.14s-46.14,20.66-46.14,46.14,20.66,46.14,46.14,46.14,46.14-20.66,46.14-46.14ZM368.01,313.71c1.55-1.16,3.03-3.03,3.07-4.38.05-1.54-.89-3.08-2.26-4.12-28.87-22-95.53-10.07-94.21,4.97,1.02,11.65,64.74,24.97,93.4,3.53ZM356.16,332.99c5.78-3.34,11.72-5.79,14.3-13.05-27.33,13.46-62.14,14.14-90.7,2.17-1.23-.51-2.76-.96-3.18.17-.2.55.18,1.74.85,2.41,17.42,17.21,55.47,17.65,78.73,8.3Z"/>
        <path class="cls-1" d="M364.26,241.61c0,23-18.65,41.65-41.65,41.65s-41.65-18.65-41.65-41.65,18.65-41.65,41.65-41.65,41.65,18.65,41.65,41.65ZM359.31,241.6c0-20.19-16.37-36.56-36.56-36.56s-36.56,16.37-36.56,36.56,16.37,36.56,36.56,36.56,36.56-16.37,36.56-36.56Z"/>
        <path class="cls-1" d="M363.45,308.4c3.4,18.39-82.35,18.89-81.49.91.1-2.18,1.34-4.74,3.75-6.04,26.58-14.43,75.55-6.7,77.74,5.14ZM337.64,316.31c7.64-.81,15.15-2.1,21.11-7.35-18.47-9.96-39.18-10.64-58.7-5.46-5.06,1.34-10.35,1.55-13.83,6.4,14.33,8.04,35.54,8.09,51.42,6.41Z"/>
        <rect class="cls-1" x="289.87" y="230.12" width="50.7" height="5.7" transform="translate(-71.59 296.36) rotate(-45.77)"/>
        <path class="cls-1" d="M301.29,234.3c-.95.98-2.89.68-3.49.38-.8-.41-1.23-2.33-.18-3.53l6.02-6.92,9.91-9.15c.74-.69,2.37-1.14,2.95-.72.9.64,1.26,2.82.17,3.96l-15.39,15.99Z"/>
      </g>
    </g>
  </g>
</svg>