<svg width="48" height="48" viewBox="0 0 48 48" fill="none" xmlns="http://www.w3.org/2000/svg">
<rect width="48" height="48" rx="24" fill="#C7A58B" fill-opacity="0.2"/>
<g clip-path="url(#clip0_702_1454)">
<path d="M24.5625 18.2527C21.7992 18.2527 19.4613 20.0632 18.6668 22.5593C19.8481 21.9616 21.1805 21.6276 22.5938 21.6276H25.6875C25.9969 21.6276 26.25 21.8808 26.25 22.1901C26.25 22.4995 25.9969 22.7526 25.6875 22.7526H25.125H22.5938C22.0102 22.7526 21.4441 22.8194 20.8992 22.9425C19.9887 23.1499 19.1414 23.519 18.3891 24.0218C16.3465 25.3823 15 27.7062 15 30.3464V30.9089C15 31.3765 15.3762 31.7526 15.8438 31.7526C16.3113 31.7526 16.6875 31.3765 16.6875 30.9089V30.3464C16.6875 28.6343 17.4152 27.0944 18.5789 26.0151C19.275 28.6694 21.6902 30.6276 24.5625 30.6276H24.5977C29.2418 30.603 33 26.0257 33 20.3831C33 18.8855 32.7363 17.4616 32.2582 16.1784C32.1668 15.9358 31.8117 15.9464 31.6887 16.1749C31.0277 17.4124 29.7199 18.2527 28.2188 18.2527H24.5625Z" fill="#7A5C4D"/>
</g>
<defs>
<clipPath id="clip0_702_1454">
<rect width="18" height="16" fill="white" transform="translate(15 16)"/>
</clipPath>
</defs>
</svg>
