<svg width="48" height="48" viewBox="0 0 48 48" fill="none" xmlns="http://www.w3.org/2000/svg">
<rect width="48" height="48" rx="24" fill="#C7A58B" fill-opacity="0.2"/>
<g clip-path="url(#clip0_702_1432)">
<path d="M22.2512 16.5012L20.9258 16.9969C20.8203 17.0356 20.75 17.1375 20.75 17.25C20.75 17.3625 20.8203 17.4644 20.9258 17.5031L22.2512 17.9988L22.7469 19.3242C22.7855 19.4297 22.8875 19.5 23 19.5C23.1125 19.5 23.2144 19.4297 23.2531 19.3242L23.7488 17.9988L25.0742 17.5031C25.1797 17.4644 25.25 17.3625 25.25 17.25C25.25 17.1375 25.1797 17.0356 25.0742 16.9969L23.7488 16.5012L23.2531 15.1758C23.2144 15.0703 23.1125 15 23 15C22.8875 15 22.7855 15.0703 22.7469 15.1758L22.2512 16.5012ZM15.6207 28.9008C14.9633 29.5582 14.9633 30.627 15.6207 31.2879L16.8371 32.5043C17.4945 33.1617 18.5633 33.1617 19.2242 32.5043L32.6293 19.0957C33.2867 18.4383 33.2867 17.3695 32.6293 16.7086L31.4129 15.4957C30.7555 14.8383 29.6867 14.8383 29.0258 15.4957L15.6207 28.9008ZM31.0367 17.9039L27.3453 21.5953L26.5262 20.7762L30.2176 17.0848L31.0367 17.9039ZM14.2637 19.1203C14.1055 19.1801 14 19.3313 14 19.5C14 19.6687 14.1055 19.8199 14.2637 19.8797L16.25 20.625L16.9953 22.6113C17.0551 22.7695 17.2062 22.875 17.375 22.875C17.5438 22.875 17.6949 22.7695 17.7547 22.6113L18.5 20.625L20.4863 19.8797C20.6445 19.8199 20.75 19.6687 20.75 19.5C20.75 19.3313 20.6445 19.1801 20.4863 19.1203L18.5 18.375L17.7547 16.3887C17.6949 16.2305 17.5438 16.125 17.375 16.125C17.2062 16.125 17.0551 16.2305 16.9953 16.3887L16.25 18.375L14.2637 19.1203ZM26.6387 28.1203C26.4805 28.1801 26.375 28.3312 26.375 28.5C26.375 28.6688 26.4805 28.8199 26.6387 28.8797L28.625 29.625L29.3703 31.6113C29.4301 31.7695 29.5812 31.875 29.75 31.875C29.9188 31.875 30.0699 31.7695 30.1297 31.6113L30.875 29.625L32.8613 28.8797C33.0195 28.8199 33.125 28.6688 33.125 28.5C33.125 28.3312 33.0195 28.1801 32.8613 28.1203L30.875 27.375L30.1297 25.3887C30.0699 25.2305 29.9188 25.125 29.75 25.125C29.5812 25.125 29.4301 25.2305 29.3703 25.3887L28.625 27.375L26.6387 28.1203Z" fill="#7A5C4D"/>
</g>
<defs>
<clipPath id="clip0_702_1432">
<rect width="20" height="18" fill="white" transform="translate(14 15)"/>
</clipPath>
</defs>
</svg>
